<svg width="24" height="24" viewBox="0 0 24 24" fill="none" xmlns="http://www.w3.org/2000/svg">
<g clip-path="url(#clip0_1563_806)">
<path fill-rule="evenodd" clip-rule="evenodd" d="M2.6596 14.6278L5.31921 11.9682L2.6596 9.3086L0 11.9682L2.6596 14.6278Z" fill="#CF202F"/>
<path fill-rule="evenodd" clip-rule="evenodd" d="M21.2768 14.6278L23.9364 11.9682L21.2768 9.3086L18.6172 11.9682L21.2768 14.6278Z" fill="#CF202F"/>
<path fill-rule="evenodd" clip-rule="evenodd" d="M11.9682 14.6278L14.6278 11.9682L11.9682 9.3086L9.30859 11.9682L11.9682 14.6278Z" fill="#CF202F"/>
<path fill-rule="evenodd" clip-rule="evenodd" d="M13.3 1.32979L11.9702 -9.29877e-06L4.65625 7.3139L7.31585 9.97351L11.9702 5.3192L16.6245 9.97351L19.2841 7.3139L13.3 1.32979Z" fill="#CF202F"/>
<path fill-rule="evenodd" clip-rule="evenodd" d="M10.6375 22.6067L11.9673 23.9365L19.2812 16.6226L16.6216 13.963L11.9673 18.6173L7.31303 13.963L4.65342 16.6226L10.6375 22.6067Z" fill="#CF202F"/>
</g>
<defs>
<clipPath id="clip0_1563_806">
<rect width="24" height="24" fill="white"/>
</clipPath>
</defs>
</svg>
