<svg width="24" height="24" viewBox="0 0 24 24" fill="none" xmlns="http://www.w3.org/2000/svg">
<path d="M9.75 15.25C9.6837 15.25 9.62011 15.2763 9.57322 15.3232C9.52634 15.3701 9.5 15.4337 9.5 15.5V16.75C9.5 16.8163 9.52634 16.8799 9.57322 16.9268C9.62011 16.9737 9.6837 17 9.75 17C9.8163 17 9.87989 16.9737 9.92678 16.9268C9.97366 16.8799 10 16.8163 10 16.75V15.5C10 15.4337 9.97366 15.3701 9.92678 15.3232C9.87989 15.2763 9.8163 15.25 9.75 15.25Z" fill="#929292"/>
<path d="M9.75 12.75C9.6837 12.75 9.62011 12.7763 9.57322 12.8232C9.52634 12.8701 9.5 12.9337 9.5 13V14.25C9.5 14.3163 9.52634 14.3799 9.57322 14.4268C9.62011 14.4737 9.6837 14.5 9.75 14.5C9.8163 14.5 9.87989 14.4737 9.92678 14.4268C9.97366 14.3799 10 14.3163 10 14.25V13C10 12.9337 9.97366 12.8701 9.92678 12.8232C9.87989 12.7763 9.8163 12.75 9.75 12.75Z" fill="#929292"/>
<path d="M19.25 13.25C19.3163 13.25 19.3799 13.2237 19.4268 13.1768C19.4737 13.1299 19.5 13.0663 19.5 13V11.5C19.4997 11.3374 19.446 11.1793 19.3472 11.05C19.4402 10.9092 19.4921 10.7452 19.4971 10.5765C19.5021 10.4079 19.46 10.2411 19.3755 10.095L18.82 9.13428C18.8036 9.10583 18.7818 9.08089 18.7557 9.06088C18.7297 9.04087 18.7 9.02619 18.6683 9.01766C18.6365 9.00914 18.6035 9.00696 18.5709 9.01122C18.5383 9.01549 18.5069 9.02613 18.4785 9.04253C18.1531 9.23041 17.7665 9.28134 17.4036 9.18412C17.0407 9.08691 16.7312 8.84951 16.5434 8.52416C16.3555 8.1988 16.3046 7.81214 16.4018 7.44924C16.499 7.08633 16.7364 6.77691 17.0618 6.58903C17.1189 6.5556 17.1605 6.501 17.1776 6.43707C17.1948 6.37315 17.186 6.30504 17.1532 6.24753L16.4865 5.09303C16.3938 4.93418 16.2422 4.81832 16.0646 4.77067C15.887 4.72301 15.6977 4.7474 15.538 4.83853L5.3 10.75H5.25C5.05109 10.75 4.86032 10.8291 4.71967 10.9697C4.57902 11.1104 4.5 11.3011 4.5 11.5V13C4.5 13.0663 4.52634 13.1299 4.57322 13.1768C4.62011 13.2237 4.6837 13.25 4.75 13.25C5.18098 13.25 5.5943 13.4212 5.89905 13.726C6.2038 14.0307 6.375 14.4441 6.375 14.875C6.375 15.306 6.2038 15.7193 5.89905 16.0241C5.5943 16.3288 5.18098 16.5 4.75 16.5C4.6837 16.5 4.62011 16.5264 4.57322 16.5733C4.52634 16.6201 4.5 16.6837 4.5 16.75V18C4.5 18.2653 4.60536 18.5196 4.79289 18.7071C4.98043 18.8947 5.23478 19 5.5 19H18.5C18.7652 19 19.0196 18.8947 19.2071 18.7071C19.3946 18.5196 19.5 18.2653 19.5 18V16.75C19.5 16.6837 19.4737 16.6201 19.4268 16.5733C19.3799 16.5264 19.3163 16.5 19.25 16.5C18.819 16.5 18.4057 16.3288 18.101 16.0241C17.7962 15.7193 17.625 15.306 17.625 14.875C17.625 14.4441 17.7962 14.0307 18.101 13.726C18.4057 13.4212 18.819 13.25 19.25 13.25ZM15.788 5.27153C15.8327 5.24601 15.8857 5.23917 15.9354 5.25252C15.9851 5.26586 16.0276 5.2983 16.0535 5.34278L16.6035 6.29478C16.2348 6.57793 15.9815 6.98544 15.8908 7.44144C15.8002 7.89743 15.8783 8.37084 16.1107 8.7735C16.3431 9.17617 16.7139 9.48065 17.1541 9.63027C17.5943 9.77988 18.0739 9.76443 18.5035 9.58678L18.942 10.3463C18.9797 10.4118 18.9986 10.4865 18.9966 10.562C18.9946 10.6376 18.9717 10.7111 18.9305 10.7745C18.8716 10.759 18.8109 10.7508 18.75 10.75H6.3L15.788 5.27153ZM17.125 14.875C17.1256 15.3952 17.3167 15.8971 17.6622 16.2859C18.0076 16.6747 18.4836 16.9235 19 16.9853V18C19 18.1326 18.9473 18.2598 18.8536 18.3536C18.7598 18.4474 18.6326 18.5 18.5 18.5H10V18C10 17.9337 9.97366 17.8701 9.92678 17.8233C9.87989 17.7764 9.8163 17.75 9.75 17.75C9.6837 17.75 9.62011 17.7764 9.57322 17.8233C9.52634 17.8701 9.5 17.9337 9.5 18V18.5H5.5C5.36739 18.5 5.24021 18.4474 5.14645 18.3536C5.05268 18.2598 5 18.1326 5 18V16.9853C5.51669 16.9241 5.99298 16.6755 6.33857 16.2865C6.68417 15.8976 6.87506 15.3953 6.87506 14.875C6.87506 14.3547 6.68417 13.8525 6.33857 13.4636C5.99298 13.0746 5.51669 12.826 5 12.7648V11.5C5 11.4337 5.02634 11.3701 5.07322 11.3233C5.12011 11.2764 5.1837 11.25 5.25 11.25H9.5V11.75C9.5 11.8163 9.52634 11.8799 9.57322 11.9268C9.62011 11.9737 9.6837 12 9.75 12C9.8163 12 9.87989 11.9737 9.92678 11.9268C9.97366 11.8799 10 11.8163 10 11.75V11.25H18.75C18.8163 11.25 18.8799 11.2764 18.9268 11.3233C18.9737 11.3701 19 11.4337 19 11.5V12.7648C18.4836 12.8266 18.0076 13.0754 17.6622 13.4642C17.3167 13.853 17.1256 14.3549 17.125 14.875Z" fill="#929292"/>
<path d="M12.5 14.5C12.6978 14.5 12.8911 14.4414 13.0556 14.3315C13.22 14.2216 13.3482 14.0654 13.4239 13.8827C13.4996 13.7 13.5194 13.4989 13.4808 13.3049C13.4422 13.1109 13.347 12.9327 13.2071 12.7929C13.0673 12.653 12.8891 12.5578 12.6951 12.5192C12.5011 12.4806 12.3 12.5004 12.1173 12.5761C11.9346 12.6518 11.7784 12.78 11.6685 12.9444C11.5586 13.1089 11.5 13.3022 11.5 13.5C11.5 13.7652 11.6054 14.0196 11.7929 14.2071C11.9804 14.3946 12.2348 14.5 12.5 14.5ZM12.5 13C12.5989 13 12.6956 13.0293 12.7778 13.0843C12.86 13.1392 12.9241 13.2173 12.9619 13.3087C12.9998 13.4 13.0097 13.5006 12.9904 13.5975C12.9711 13.6945 12.9235 13.7836 12.8536 13.8536C12.7836 13.9235 12.6945 13.9711 12.5975 13.9904C12.5006 14.0097 12.4 13.9998 12.3087 13.9619C12.2173 13.9241 12.1392 13.86 12.0843 13.7778C12.0293 13.6956 12 13.5989 12 13.5C12 13.3674 12.0527 13.2402 12.1464 13.1464C12.2402 13.0527 12.3674 13 12.5 13Z" fill="#929292"/>
<path d="M15.5 15.5C15.3022 15.5 15.1089 15.5586 14.9444 15.6685C14.78 15.7784 14.6518 15.9346 14.5761 16.1173C14.5004 16.3 14.4806 16.5011 14.5192 16.6951C14.5578 16.8891 14.653 17.0673 14.7929 17.2071C14.9327 17.347 15.1109 17.4422 15.3049 17.4808C15.4989 17.5194 15.7 17.4996 15.8827 17.4239C16.0654 17.3482 16.2216 17.22 16.3315 17.0556C16.4414 16.8911 16.5 16.6978 16.5 16.5C16.5 16.2348 16.3946 15.9804 16.2071 15.7929C16.0196 15.6054 15.7652 15.5 15.5 15.5ZM15.5 17C15.4011 17 15.3044 16.9707 15.2222 16.9157C15.14 16.8608 15.0759 16.7827 15.0381 16.6913C15.0002 16.6 14.9903 16.4994 15.0096 16.4025C15.0289 16.3055 15.0765 16.2164 15.1464 16.1464C15.2164 16.0765 15.3055 16.0289 15.4025 16.0096C15.4994 15.9903 15.6 16.0002 15.6913 16.0381C15.7827 16.0759 15.8608 16.14 15.9157 16.2222C15.9707 16.3044 16 16.4011 16 16.5C16 16.6326 15.9473 16.7598 15.8536 16.8536C15.7598 16.9473 15.6326 17 15.5 17Z" fill="#929292"/>
<path d="M11.7188 16.5C11.7186 16.6542 11.7642 16.8049 11.8498 16.933C11.9355 17.0611 12.0573 17.1609 12.1997 17.2197C12.3422 17.2785 12.4989 17.2936 12.65 17.2631C12.8011 17.2327 12.9397 17.158 13.0483 17.0485L16.0285 14.0305C16.1676 13.889 16.2456 13.6986 16.2456 13.5002C16.2456 13.3017 16.1676 13.1113 16.0285 12.9698C15.8853 12.8345 15.6957 12.7592 15.4988 12.7592C15.3018 12.7592 15.1122 12.8345 14.969 12.9698L11.9498 15.95C11.8768 16.0219 11.8188 16.1075 11.7791 16.2019C11.7394 16.2963 11.7189 16.3976 11.7188 16.5ZM12.301 16.305L15.3218 13.323C15.3446 13.298 15.3723 13.278 15.4032 13.264C15.434 13.2501 15.4674 13.2425 15.5012 13.2418C15.5351 13.2412 15.5687 13.2474 15.6001 13.2601C15.6315 13.2728 15.66 13.2918 15.6838 13.3158C15.7076 13.3399 15.7263 13.3685 15.7388 13.4C15.7512 13.4315 15.7571 13.4652 15.7561 13.4991C15.7551 13.5329 15.7473 13.5662 15.733 13.5969C15.7188 13.6276 15.6984 13.6552 15.6733 13.6778L12.6933 16.697C12.6675 16.7228 12.637 16.7432 12.6033 16.7572C12.5697 16.7711 12.5336 16.7783 12.4972 16.7783C12.4608 16.7783 12.4247 16.7712 12.3911 16.7572C12.3575 16.7433 12.3269 16.7229 12.3011 16.6972C12.2754 16.6714 12.2549 16.6409 12.241 16.6072C12.227 16.5736 12.2199 16.5375 12.2199 16.5011C12.2198 16.4647 12.227 16.4287 12.2409 16.395C12.2548 16.3614 12.2753 16.3308 12.301 16.305Z" fill="#929292"/>
</svg>
