<svg width="24" height="24" viewBox="0 0 24 24" fill="none" xmlns="http://www.w3.org/2000/svg">
<path d="M12 24C18.6274 24 24 18.6274 24 12C24 5.37258 18.6274 0 12 0C5.37258 0 0 5.37258 0 12C0 18.6274 5.37258 24 12 24Z" fill="#CF202F"/>
<path fill-rule="evenodd" clip-rule="evenodd" d="M16.7844 10.1411C17.2686 10.1411 17.6611 9.75628 17.6611 9.28165C17.6611 8.80693 17.2686 8.42173 16.7844 8.42173C16.3007 8.42173 15.9084 8.80693 15.9084 9.28165C15.9084 9.75628 16.3007 10.1411 16.7844 10.1411ZM10.0696 10.6051C10.0302 10.7027 9.74543 11.4916 9.05679 12.3093V8.81293L7.22194 9.16874V15.5061H9.05679V13.5471C9.58822 14.329 9.85064 15.5061 9.85064 15.5061H12.0484C11.831 14.6197 10.8801 12.9849 10.8801 12.9849C11.7335 11.9235 12.1084 10.7926 12.168 10.6051H10.0696ZM14.8935 10.539C13.25 10.5908 12.4158 11.3141 12.4158 12.7518V15.5061H14.2087V13.2601C14.2087 12.399 14.3236 12.03 15.3651 11.9949V10.5643C15.1898 10.5278 14.8935 10.539 14.8935 10.539ZM4.1447 11.303C3.91996 11.2885 3.39965 11.2556 3.39965 10.7961C3.39965 10.2416 4.14875 10.2416 4.42973 10.2416C4.92376 10.2416 5.5636 10.3847 6.02053 10.5188C6.02053 10.5188 6.27541 10.607 6.49224 10.6973L6.51249 10.7027V9.18417L6.4848 9.17614C5.94555 8.99107 5.31852 8.81293 4.15601 8.81293C2.15161 8.81293 1.44141 9.95835 1.44141 10.9397C1.44141 11.5053 1.68847 12.8365 3.98411 12.9901C4.17871 13.0018 4.69506 13.0309 4.69506 13.5058C4.69506 13.8979 4.27233 14.129 3.56119 14.129C2.78185 14.129 2.02586 13.9341 1.56668 13.7492V15.3132C2.25409 15.4899 3.029 15.5782 3.9372 15.5782C5.89704 15.5782 6.77481 14.4945 6.77481 13.4204C6.77481 12.2025 5.79258 11.4113 4.1447 11.303ZM15.8956 15.5061H17.674V10.6107H15.8956V15.5061ZM21.0227 9.12504V15.5061H22.8014V8.81293L21.0227 9.12504ZM18.4273 9.12504L20.2044 8.81293V15.5061H18.4273V9.12504Z" fill="white"/>
</svg>
