<svg width="24" height="25" viewBox="0 0 24 25" fill="none" xmlns="http://www.w3.org/2000/svg">
<path d="M18 20.5H6C5.73478 20.5 5.48043 20.3946 5.29289 20.2071C5.10536 20.0196 5 19.7652 5 19.5C5 19.2348 5.10536 18.9804 5.29289 18.7929C5.48043 18.6054 5.73478 18.5 6 18.5H18C18.2652 18.5 18.5196 18.6054 18.7071 18.7929C18.8946 18.9804 19 19.2348 19 19.5C19 19.7652 18.8946 20.0196 18.7071 20.2071C18.5196 20.3946 18.2652 20.5 18 20.5Z" fill="#CF202F"/>
<path d="M8.08181 8.88C8.15683 9.06262 8.28423 9.21895 8.44795 9.32928C8.61167 9.43961 8.80439 9.49901 9.00181 9.5H11.0018V15.5C11.0018 15.7652 11.1072 16.0196 11.2947 16.2071C11.4822 16.3946 11.7366 16.5 12.0018 16.5C12.267 16.5 12.5214 16.3946 12.7089 16.2071C12.8965 16.0196 13.0018 15.7652 13.0018 15.5V9.5H15.0018C15.1992 9.49901 15.392 9.43961 15.5557 9.32928C15.7194 9.21895 15.8468 9.06262 15.9218 8.88C15.9984 8.69789 16.0193 8.49718 15.9819 8.30319C15.9446 8.1092 15.8506 7.93062 15.7118 7.79L12.7118 4.79C12.6167 4.69896 12.5046 4.62759 12.3818 4.58C12.2621 4.52709 12.1327 4.49977 12.0018 4.49977C11.8709 4.49977 11.7415 4.52709 11.6218 4.58C11.4991 4.62759 11.3869 4.69896 11.2918 4.79L8.29181 7.79C8.15306 7.93062 8.05906 8.1092 8.02169 8.30319C7.98431 8.49718 8.00523 8.69789 8.08181 8.88Z" fill="#CF202F"/>
</svg>
