<svg width="24" height="24" viewBox="0 0 24 24" fill="none" xmlns="http://www.w3.org/2000/svg">
<path d="M11.9791 2.20105C6.22248 2.20105 1.56641 6.85715 1.56641 12.6138C1.56641 18.3704 6.22248 23.0265 11.9791 23.0265C17.7357 23.0265 22.3918 18.3704 22.3918 12.6138C22.4341 6.85715 17.7357 2.20105 11.9791 2.20105ZM6.43413 15.0264L5.41825 11.1746C5.37592 10.9206 5.29126 10.836 5.12195 10.7513C4.82565 10.582 4.31773 10.455 3.89445 10.328L3.93677 10.2011H6.05317C6.30714 10.2011 6.56112 10.3704 6.64577 10.709L7.15371 13.5026L8.46587 10.2011H9.77803L7.74629 15.0264H6.43413ZM9.27011 15.0264L10.286 10.2011H11.5558L10.54 15.0264H9.27011ZM12.7833 15.1111C12.2331 15.1111 11.6828 14.9841 11.3865 14.8571L11.5982 13.7989C11.8945 13.9259 12.2331 14.0952 12.868 14.0952C13.249 14.0952 13.6299 13.9259 13.6299 13.6296C13.6299 13.418 13.4606 13.2487 12.995 13.037C12.5294 12.8254 11.8944 12.4021 11.8944 11.7249C11.8944 10.7936 12.7833 10.1164 14.0108 10.1164C14.4764 10.1164 14.8997 10.2011 15.196 10.328L14.9844 11.3439C14.4341 11.09 13.9262 11.09 13.7569 11.1323C13.3759 11.1746 13.2489 11.3439 13.2066 11.5556C13.2066 12.1058 14.9844 12.1905 14.9421 13.4603C14.9844 14.4762 14.0955 15.1111 12.7833 15.1111ZM18.2436 15.0264L18.0743 14.3069H16.4659L16.2119 15.0264H14.8997L16.7622 10.5397C16.8468 10.328 17.0585 10.2011 17.3124 10.2011H18.3706L19.3865 15.0264H18.2436Z" fill="#CF202F"/>
<path d="M16.8477 13.3333H17.8635L17.4826 11.5132L16.8477 13.3333Z" fill="#CF202F"/>
</svg>
