<svg width="24" height="24" viewBox="0 0 24 24" fill="none" xmlns="http://www.w3.org/2000/svg">
<g clip-path="url(#clip0_1563_799)">
<path d="M12 0C9.62663 0 7.30655 0.703788 5.33316 2.02236C3.35977 3.34094 1.8217 5.21509 0.913451 7.4078C0.00519943 9.60051 -0.232441 12.0133 0.230582 14.3411C0.693605 16.6689 1.83649 18.8071 3.51472 20.4853C5.19295 22.1635 7.33115 23.3064 9.65892 23.7694C11.9867 24.2324 14.3995 23.9948 16.5922 23.0866C18.7849 22.1783 20.6591 20.6402 21.9776 18.6668C23.2962 16.6935 24 14.3734 24 12C24 8.8174 22.7357 5.76515 20.4853 3.51472C18.2348 1.26428 15.1826 0 12 0ZM12.95 6.5C12.946 6.62154 12.9865 6.74038 13.0638 6.83425C13.1411 6.92813 13.25 6.99061 13.37 7.01C14.6992 7.21348 15.9131 7.8819 16.7957 8.89635C17.6783 9.91079 18.1723 11.2055 18.19 12.55C18.1637 14.076 17.5329 15.5291 16.436 16.5903C15.3392 17.6515 13.866 18.2341 12.34 18.21C11.5938 18.2122 10.8549 18.0636 10.1675 17.7732C9.48017 17.4828 8.85856 17.0566 8.34001 16.52C7.70964 15.8532 7.21797 15.0679 6.89353 14.2096C6.56909 13.3512 6.41833 12.437 6.45001 11.52C6.39714 10.1289 6.66346 8.74411 7.22853 7.47182C7.79361 6.19954 8.64245 5.0735 9.71001 4.18C11.1097 3.01933 12.8012 2.26525 14.6 2C13.7 2.83 13 4.19 12.92 6.49L12.95 6.5Z" fill="#CF202F"/>
</g>
<defs>
<clipPath id="clip0_1563_799">
<rect width="24" height="24" fill="white"/>
</clipPath>
</defs>
</svg>
